<?xml version="1.0" encoding="utf-8"?>
<!-- Generator: Adobe Illustrator 24.3.0, SVG Export Plug-In . SVG Version: 6.00 Build 0)  -->
<svg version="1.1" xmlns="http://www.w3.org/2000/svg" xmlns:xlink="http://www.w3.org/1999/xlink" x="0px" y="0px"
	 viewBox="0 0 148 148" style="enable-background:new 0 0 148 148;" xml:space="preserve">
<style type="text/css">
	.st0{fill:none;stroke:#FFFFFF;stroke-width:3;stroke-linejoin:round;stroke-miterlimit:10;}
	.st1{display:none;}
	.st2{display:inline;}
	.st3{fill:none;stroke:#FFFFFF;stroke-width:3;stroke-miterlimit:10;}
	.st4{fill:none;stroke:#FFFFFF;stroke-width:4;stroke-miterlimit:10;}
	.st5{fill:none;stroke:#FFFFFF;stroke-width:4;stroke-linejoin:round;stroke-miterlimit:10;}
</style>
<g id="_x31_-3_Punkte_1">
</g>
<g id="_x31_-3_Punkte_2" class="st1">
</g>
<g id="_x34_-6_Punkte_1">
</g>
<g id="_x34_-6_Punkte_2" class="st1">
</g>
<g id="_x37_-8_Punkte_1">
	<g>
		<line class="st4" x1="77.9" y1="16" x2="77.9" y2="37.8"/>
		<line class="st4" x1="94.1" y1="42.6" x2="83" y2="61.7"/>
		<line class="st4" x1="102.1" y1="60" x2="96.7" y2="63.1"/>
		<line class="st4" x1="128.1" y1="45" x2="106.9" y2="57.3"/>
		<line class="st4" x1="114.1" y1="74" x2="92.4" y2="74"/>
		<line class="st4" x1="128.1" y1="103" x2="96.7" y2="84.9"/>
		<line class="st4" x1="94.1" y1="103.8" x2="83" y2="84.6"/>
		<line class="st4" x1="77.9" y1="132" x2="77.9" y2="112.7"/>
		<line class="st4" x1="56.3" y1="110.2" x2="67.4" y2="91.1"/>
		<line class="st4" x1="27.7" y1="103" x2="59" y2="84.9"/>
		<line class="st4" x1="19.9" y1="74" x2="44.1" y2="74"/>
		<line class="st4" x1="45.8" y1="55.5" x2="64.9" y2="66.6"/>
		<line class="st4" x1="48.9" y1="23.8" x2="67" y2="55.2"/>
		<line class="st4" x1="77.9" y1="42.6" x2="77.9" y2="47.4"/>
		<line class="st4" x1="48.9" y1="74" x2="53.7" y2="74"/>
		<line class="st4" x1="77.9" y1="103" x2="77.9" y2="107.8"/>
		<line class="st4" x1="77.9" y1="93.3" x2="77.9" y2="98.2"/>
		<line class="st4" x1="73.1" y1="82.9" x2="70.6" y2="87.7"/>
		<line class="st5" x1="27.1" y1="42.6" x2="22.3" y2="47.4"/>
		<line class="st5" x1="39.2" y1="30.5" x2="34.4" y2="35.3"/>
		<line class="st5" x1="34.4" y1="42.6" x2="39.2" y2="47.4"/>
		<line class="st5" x1="22.3" y1="30.5" x2="27.1" y2="35.3"/>
		<line class="st5" x1="104.5" y1="110.2" x2="104.5" y2="115.1"/>
		<line class="st5" x1="104.5" y1="119.9" x2="104.5" y2="124.8"/>
		<line class="st5" x1="102.1" y1="117.5" x2="97.2" y2="117.5"/>
		<line class="st5" x1="111.7" y1="117.5" x2="106.9" y2="117.5"/>
		<line class="st5" x1="106.9" y1="20.8" x2="106.9" y2="28.1"/>
		<line class="st5" x1="106.9" y1="37.8" x2="106.9" y2="45"/>
		<line class="st5" x1="102.1" y1="32.9" x2="94.8" y2="32.9"/>
		<line class="st5" x1="119" y1="32.9" x2="111.7" y2="32.9"/>
	</g>
</g>
<g id="_x37_-8_Punkte_2" class="st1">
	<g class="st2">
		<path class="st3" d="M63.7,98v-6.9c0,0,5.1-3.9,5.1-8.6v-3.4"/>
		<path class="st3" d="M46.6,77.4c0,0,10.6-10.6,13.7-13.7s7.5,4.5,3.4,8.6c-1.8,1.8-3.4,3.4-3.4,3.4c0,0.8,0,2.8,0,3.4
			c0,6.7-6.1,8.6-7.1,8.6"/>
		<polyline class="st3" points="34.6,110 34.6,98 68.9,98 68.9,110 		"/>
		<line class="st3" x1="39.7" y1="104.9" x2="43.1" y2="104.9"/>
		<path class="st3" d="M51.7,58.6l-8.6,8.6c-1.7,1.7-3.4,3.4-3.4,6.9v10.3l0,13.7"/>
		<path class="st3" d="M60.3,79.1h53.1V65.4c-3.8,0-5.1-3.1-5.1-6.9c0-3.8,1.4-6.9,5.1-6.9V38H51.7v34.3"/>
		<line class="st3" x1="99.7" y1="38" x2="99.7" y2="44.9"/>
		<line class="st3" x1="99.7" y1="56.9" x2="99.7" y2="62"/>
		<line class="st3" x1="99.7" y1="48.3" x2="99.7" y2="53.4"/>
		<line class="st3" x1="99.7" y1="65.4" x2="99.7" y2="70.6"/>
		<line class="st3" x1="99.7" y1="74" x2="99.7" y2="79.1"/>
		<polygon class="st3" points="79.1,47.5 82.5,54.3 89.7,55.1 84.5,60.7 85.7,67.5 79.1,64.6 72.6,67.5 73.7,60.7 68.6,55.1 
			75.8,54.3 		"/>
	</g>
</g>
</svg>
