<?xml version="1.0" encoding="utf-8"?>
<!-- Generator: Adobe Illustrator 24.3.0, SVG Export Plug-In . SVG Version: 6.00 Build 0)  -->
<svg version="1.1" xmlns="http://www.w3.org/2000/svg" xmlns:xlink="http://www.w3.org/1999/xlink" x="0px" y="0px"
	 viewBox="0 0 148 148" style="enable-background:new 0 0 148 148;" xml:space="preserve">
<style type="text/css">
	.st0{fill:none;stroke:#FFFFFF;stroke-width:3;stroke-linejoin:round;stroke-miterlimit:10;}
	.st1{display:none;}
	.st2{display:inline;}
	.st3{fill:none;stroke:#FFFFFF;stroke-width:3;stroke-miterlimit:10;}
	.st4{fill:none;stroke:#FFFFFF;stroke-width:4;stroke-miterlimit:10;}
	.st5{fill:none;stroke:#FFFFFF;stroke-width:4;stroke-linejoin:round;stroke-miterlimit:10;}
</style>
<g id="_x31_-3_Punkte_1">
</g>
<g id="_x31_-3_Punkte_2" class="st1">
</g>
<g id="_x34_-6_Punkte_1">
	<g>
		<path class="st4" d="M54.8,104.3h2.1c4.5,0,5.7,6.1,12.1,6.1c1.3,0,16.1,0,16.1,0"/>
		<path class="st4" d="M113.4,82.1c0-2.2-1.8-4-4-4H99.2c-2.2,0-4,1.8-4,4v4c0,2.2,1.8,4,4,4h10.1c2.2,0,4-1.8,4-4V82.1z"/>
		<path class="st4" d="M111.4,70c0-2.2-1.8-4-4-4H97.2c-2.2,0-4,1.8-4,4v4c0,2.2,1.8,4,4,4h10.1c2.2,0,4-1.8,4-4V70z"/>
		<path class="st4" d="M111.4,94.2c0-2.2-1.8-4-4-4H97.2c-2.2,0-4,1.8-4,4v4c0,2.2,1.8,4,4,4h10.1c2.2,0,4-1.8,4-4V94.2z"/>
		<path class="st4" d="M107.3,106.4c0-2.2-1.8-4-4-4H93.2c-2.2,0-4,1.8-4,4v2c0,2.2,1.8,4,4,4h10.1c2.2,0,4-1.8,4-4V106.4z"/>
		<rect x="34.6" y="66" class="st4" width="20.2" height="44.4"/>
		<path class="st4" d="M71.4,94.2C81,90.7,86.9,81.7,87.1,72c0,0,0-8.8,0-10.1c0-1.5,2-4.7,2-11.3c0-6.6-1.2-9.1-4-12.8
			c-2.9-3.7-8.1-2.6-8.1,0.9v2.9c0,8-2.9,13.4-8.2,19.4L60.9,70h-4"/>
		<line class="st4" x1="44.7" y1="72" x2="44.7" y2="80.1"/>
	</g>
</g>
<g id="_x34_-6_Punkte_2" class="st1">
	<g class="st2">
		<path class="st3" d="M63.7,98v-6.9c0,0,5.1-3.9,5.1-8.6v-3.4"/>
		<path class="st3" d="M46.6,77.4c0,0,10.6-10.6,13.7-13.7s7.5,4.5,3.4,8.6c-1.8,1.8-3.4,3.4-3.4,3.4c0,0.8,0,2.8,0,3.4
			c0,6.7-6.1,8.6-7.1,8.6"/>
		<polyline class="st3" points="34.6,110 34.6,98 68.9,98 68.9,110 		"/>
		<line class="st3" x1="39.7" y1="104.9" x2="43.1" y2="104.9"/>
		<path class="st3" d="M51.7,58.6l-8.6,8.6c-1.7,1.7-3.4,3.4-3.4,6.9v10.3l0,13.7"/>
		<path class="st3" d="M60.3,79.1h53.1V65.4c-3.8,0-5.1-3.1-5.1-6.9c0-3.8,1.4-6.9,5.1-6.9V38H51.7v34.3"/>
		<line class="st3" x1="99.7" y1="38" x2="99.7" y2="44.9"/>
		<line class="st3" x1="99.7" y1="56.9" x2="99.7" y2="62"/>
		<line class="st3" x1="99.7" y1="48.3" x2="99.7" y2="53.4"/>
		<line class="st3" x1="99.7" y1="65.4" x2="99.7" y2="70.6"/>
		<line class="st3" x1="99.7" y1="74" x2="99.7" y2="79.1"/>
		<polygon class="st3" points="79.1,47.5 82.5,54.3 89.7,55.1 84.5,60.7 85.7,67.5 79.1,64.6 72.6,67.5 73.7,60.7 68.6,55.1 
			75.8,54.3 		"/>
	</g>
</g>
<g id="_x37_-8_Punkte_1">
</g>
<g id="_x37_-8_Punkte_2" class="st1">
</g>
</svg>
